    <svg xmlns="http://www.w3.org/2000/svg" width="445" height="445"><path stroke="none" fill="#20be86" d="M209.48348782647 8.0553645488074a30 30 0 0 1 26.033024347053 0l154.16074923343 74.239904047172a30 30 0 0 1 16.231325191928 20.353438018383l38.07456075446 166.81555017594a30 30 0 0 1 -5.7928928914138 25.380322074451l-106.68254855212 133.77568460513a30 30 0 0 1 -23.454944474041 11.295305944238l-171.10552287155 0a30 30 0 0 1 -23.454944474041 -11.295305944238l-106.68254855212 -133.77568460513a30 30 0 0 1 -5.7928928914138 -25.380322074451l38.07456075446 -166.81555017594a30 30 0 0 1 16.231325191928 -20.353438018383"></path></svg>