<?xml version="1.0" encoding="utf-8"?>
<!-- Generator: Adobe Illustrator 26.0.0, SVG Export Plug-In . SVG Version: 6.00 Build 0)  -->
<svg version="1.1" id="Layer_1" xmlns="http://www.w3.org/2000/svg" xmlns:xlink="http://www.w3.org/1999/xlink" x="0px" y="0px"
	 viewBox="0 0 841.89 595.28" style="enable-background:new 0 0 841.89 595.28;" xml:space="preserve">
<style type="text/css">
	.st0{fill:transparent;}
	.st1{fill:url(#SVGID_1_);}
</style>
<g>
	<path class="st0" d="M337.58,417.59l111.16-53.53c5.54-2.67,9.57-7.72,10.94-13.71l27.45-120.28c1.37-6-0.07-12.29-3.9-17.1
		L406.3,116.5c-3.83-4.81-9.65-7.61-15.8-7.61H267.12c-6.15,0-11.97,2.8-15.8,7.61l-76.92,96.46c-3.83,4.81-5.27,11.1-3.9,17.1
		l27.45,120.28c1.37,6,5.39,11.04,10.94,13.71l111.16,53.53C325.58,420.26,332.04,420.26,337.58,417.59z"/>
	<linearGradient id="SVGID_1_" gradientUnits="userSpaceOnUse" x1="404.0427" y1="392.2389" x2="244.7609" y2="116.3547">
		<stop  offset="0" style="stop-color:#4361AD"/>
		<stop  offset="0.4888" style="stop-color:#C7E8E5"/>
		<stop  offset="1" style="stop-color:#4EB748"/>
	</linearGradient>
	<path class="st1" d="M328.81,421.6c-3.29,0-6.57-0.74-9.64-2.21l-111.16-53.53c-6.12-2.95-10.5-8.44-12.02-15.07l-27.45-120.28
		c-1.51-6.63,0.05-13.48,4.29-18.79l76.92-96.46c4.24-5.31,10.57-8.36,17.37-8.36H390.5c6.8,0,13.13,3.05,17.37,8.36l76.92,96.46
		c4.24,5.31,5.8,12.16,4.29,18.79l-27.45,120.28c-1.51,6.63-5.89,12.12-12.02,15.07l-111.16,53.53
		C335.39,420.86,332.1,421.6,328.81,421.6z M267.12,110.89c-5.57,0-10.76,2.5-14.24,6.86l-76.92,96.46
		c-3.48,4.36-4.76,9.97-3.52,15.41L199.9,349.9c1.24,5.43,4.83,9.94,9.85,12.35l111.16,53.53c5.02,2.42,10.78,2.42,15.8,0
		l111.16-53.53c5.02-2.42,8.61-6.92,9.85-12.35l27.45-120.28c1.24-5.43-0.04-11.05-3.52-15.41l-76.92-96.46
		c-3.48-4.36-8.66-6.86-14.24-6.86H267.12z"/>
</g>
</svg>
